<svg xmlns="http://www.w3.org/2000/svg" height="300" width="300" fill="#000000" viewBox="0 0 84.863 90" xmlns:v="https://vecta.io/nano"><path d="M72.158 61.501V22.412c0-3.862-3.129-6.996-6.992-6.996-1.42.001-2.727.439-3.828 1.163v-4.447a7 7 0 0 0-6.996-6.996 6.96 6.96 0 0 0-4.088 1.327 6.99 6.99 0 0 0-6.73-5.113 7 7 0 0 0-6.993 6.997v1.201c-1.102-.725-2.408-1.162-3.825-1.164a7 7 0 0 0-6.997 6.995v22.014a5.34 5.34 0 0 0-4.441-2.26c-1.185.002-2.474.322-3.908.975-.479.218-.801.677-.843 1.203l-.028.224c-.17 1.214-1.236 7.072-6.974 14.417-.226.288-.333.648-.303 1.013.008.063.745 9.061 3.72 18.184 1.494 4.564 3.536 9.17 6.437 12.739C22.241 87.438 26.125 90 30.989 90h.029l.158-.002L56.102 90c8.869-.002 16.058-7.189 16.058-16.055V61.52l-.002-.019zm-46.45-11.856v8.983l-1.17-.347c-.121-.121-.456-.542-.479-1.952-.004-1.311.368-3.452 1.649-6.684zm30.394 37.457l-25.083.002c-3.824-.014-6.827-1.912-9.401-5.047-3.836-4.688-6.294-12.068-7.696-18.238-.707-3.088-1.162-5.872-1.442-7.881a75.94 75.94 0 0 1-.326-2.662c5.289-6.932 6.744-12.676 7.125-14.828.818-.304 1.479-.416 1.989-.414 1.076.025 1.58.39 2.128 1.11 1.015 1.352 1.276 4.155 1.248 5.395l-.004.371c-2.645 5.475-3.47 8.996-3.478 11.42-.072 3.228 1.769 4.526 2.212 4.623l3.373 1.009c.225.066 1.185.135 1.185.135a14.12 14.12 0 0 0 1.41.139c2.747.361 8.297 1.832 10.297 6.32a1.45 1.45 0 0 0 1.316.844c.204 0 .409-.043.605-.136.727-.334 1.045-1.194.71-1.921-1.874-4.04-5.534-6.047-8.567-7.058a22.48 22.48 0 0 0-5.095-1.048V15.379c.004-2.263 1.835-4.092 4.097-4.096 1.746-.004 3.237 1.096 3.826 2.638l-.001 31.881a1.45 1.45 0 0 0 1.44 1.457 1.45 1.45 0 0 0 1.458-1.442V8.347c.004-2.265 1.835-4.094 4.095-4.098a4.1 4.1 0 0 1 4.097 4.098v39.627a1.45 1.45 0 0 0 1.449 1.449 1.45 1.45 0 0 0 1.45-1.449h-.002v-37.3c.59-1.543 2.076-2.641 3.824-2.639 2.264.004 4.094 1.835 4.098 4.097v37.354a1.45 1.45 0 1 0 2.9 0h-.002V20.95a4.1 4.1 0 0 1 7.922 1.462v39.093 12.44c-.013 7.265-5.89 13.143-13.157 13.157z"/></svg>