<svg xmlns="http://www.w3.org/2000/svg" height="300" width="300" fill="#000000" viewBox="0 0 84.863 90" xmlns:v="https://vecta.io/nano"><path d="M72.027 35.938a7 7 0 0 0-6.996-6.998 6.95 6.95 0 0 0-3.894 1.205c-.452-3.426-3.377-6.071-6.928-6.073-1.529.001-2.938.496-4.09 1.328-.822-2.948-3.521-5.113-6.731-5.113-3.34.002-6.129 2.34-6.825 5.477-.06.359-.03.281-.044.442l-.023 2.34a6.95 6.95 0 0 0-3.928-1.227c-3.342.004-6.129 2.343-6.824 5.476l-.034.313v4.294c-.894-1.272-2.47-2.297-4.443-2.271-1.185.003-2.474.322-3.907.974a1.45 1.45 0 0 0-.844 1.203s-.002.052-.026.226c-.171 1.213-1.239 7.074-6.975 14.419-.226.288-.333.648-.303 1.012.008.063.746 8.993 3.722 18.049 1.494 4.532 3.538 9.105 6.438 12.649 2.877 3.534 6.771 6.076 11.645 6.067l.16-.002.377.004c.941.174 1.912.269 2.906.267L56.105 90A16.06 16.06 0 0 0 72.16 73.941l-.133-38.003zm-10.82-1.436c.584-1.551 2.068-2.664 3.824-2.664v.002c2.262.004 4.092 1.834 4.096 4.099v9.467a4.31 4.31 0 0 1-.074.771v.002c-.361 1.887-2.024 3.323-4.021 3.32a4.06 4.06 0 0 1-2.943-1.256c-.326-.339-.588-.736-.783-1.171-.034-.078-.067-.156-.098-.237-.021-.057-.053-.111-.07-.17-.133-.406-.202-.824-.204-1.26l.002-9.467a4.28 4.28 0 0 1 .077-.795c.029-.152.072-.307.125-.471.016-.058.048-.111.069-.17zm-7.006-7.531h.01c2.262.004 4.094 1.836 4.098 4.098v18.664c-.004 1.414-.719 2.658-1.809 3.396a4.1 4.1 0 0 1-2.289.701 4.08 4.08 0 0 1-3.346-1.741 4.13 4.13 0 0 1-.506-.99c-.015-.037-.033-.072-.047-.111-.127-.396-.197-.816-.199-1.252l.002-18.665c0-.441.07-.86.199-1.265.016-.043.037-.084.053-.127.569-1.572 2.067-2.708 3.834-2.708zm-14.791-.294l.008-.382v-.005a4.1 4.1 0 0 1 8.069.985l-.035 23.61c.004.178.01.324.018.448a1.17 1.17 0 0 1 .012.118c-.002.025-.008.05-.01.076a4.09 4.09 0 0 1-.057.496c-.012.076-.016.156-.033.231-.041.187-.104.362-.172.538-.027.071-.045.146-.074.217-.074.166-.168.318-.264.473-.041.068-.074.144-.119.209-.098.141-.213.266-.326.392-.061.065-.111.14-.176.202-.115.111-.246.206-.373.305-.078.061-.148.129-.229.184-.131.086-.273.151-.414.223-.095.048-.181.104-.275.146-.15.063-.314.101-.474.146-.096.026-.187.065-.284.086-.244.049-.498.072-.756.076-.019 0-.035.005-.055.005-.152-.001-.298-.029-.445-.047-2.015-.227-3.5-1.896-3.516-4.049-.002-.027-.024-24.347-.02-24.683zm-10.801 6.606c.459-1.76 2.057-3.069 3.961-3.065 1.747-.002 3.234 1.095 3.826 2.634v15.606a3.66 3.66 0 0 1-.101.243c-.039.087-.077.174-.122.258-.052.1-.113.191-.173.284-.054.082-.104.166-.164.243-.064.087-.137.166-.208.246-.066.074-.129.151-.2.222-.077.075-.161.142-.243.212-.076.063-.149.13-.23.188-.089.063-.185.117-.279.174-.083.052-.164.105-.251.15-.102.053-.211.094-.319.137-.086.035-.17.076-.26.104-.124.042-.254.067-.383.097-.079.018-.156.043-.237.057-.202.033-.41.048-.621.05-.011 0-.022.003-.033.003-.242 0-.479-.021-.708-.063-.07-.012-.135-.037-.204-.053-.157-.035-.313-.07-.463-.124-.086-.03-.167-.075-.251-.11-.123-.056-.249-.104-.365-.17-.09-.051-.17-.113-.256-.17-.101-.066-.206-.129-.3-.205-.084-.067-.159-.146-.238-.222s-.17-.153-.248-.237-.138-.176-.206-.264-.14-.175-.201-.271-.11-.197-.163-.298-.108-.195-.154-.299-.077-.216-.113-.324c-.032-.096-.066-.19-.091-.289V33.283h-.002zm-2.898 16.36v8.983l-1.169-.346c-.122-.121-.457-.546-.478-1.954-.006-1.31.366-3.451 1.647-6.683zm43.551 24.298c-.012 7.268-5.893 13.147-13.157 13.159H34.463a12.92 12.92 0 0 1-2.487-.238l-.257-.024-.481-.006c-.033-.002-.063-.002-.091-.002-.055 0-.099.002-.125.002-3.83-.01-6.833-1.896-9.404-5.008-3.835-4.649-6.292-11.972-7.692-18.095-.706-3.061-1.163-5.826-1.442-7.814a74.26 74.26 0 0 1-.325-2.639c5.288-6.935 6.744-12.68 7.125-14.832.818-.303 1.479-.416 1.988-.416 1.077.028 1.58.394 2.128 1.113 1.015 1.351 1.278 4.156 1.249 5.397l-.004.372c-2.645 5.472-3.471 8.994-3.479 11.415-.072 3.229 1.771 4.528 2.214 4.625l3.373 1.006c.214.063 3.17.134 5.469.854 2.622.819 5.387 2.379 6.746 5.338.243.527.769.842 1.315.842.204 0 .409-.043.605-.135a1.45 1.45 0 0 0 .709-1.922c-1.858-4.013-5.492-5.951-8.514-6.891-1.787-.555-3.402-.785-4.472-.881V52.79c.096.065.202.115.301.177.125.078.251.153.382.223.202.108.413.201.626.289.131.056.259.112.393.158.245.083.499.146.755.201.113.025.223.061.339.08a7.3 7.3 0 0 0 1.163.104h0c.026 0 .053-.006.08-.006a7.09 7.09 0 0 0 1.037-.086c.114-.019.222-.055.334-.078.245-.053.49-.104.725-.181.129-.042.249-.103.375-.151.208-.08.416-.16.613-.261.129-.065.249-.146.374-.22.146-.087.298-.161.437-.257.563 2.709 2.695 4.84 5.403 5.411.018.004.036.008.054.011.199.042.402.071.608.096.027.003.056.009.084.013.229.021.462.037.698.037.02 0 .037-.005.057-.005a6.9 6.9 0 0 0 .792-.054c.091-.011.179-.025.269-.041a6.82 6.82 0 0 0 .592-.122c.082-.021.164-.038.244-.063.262-.074.519-.162.767-.268.032-.013.061-.029.092-.043.223-.098.436-.207.645-.326a5.72 5.72 0 0 0 .203-.121c.183-.111.355-.23.525-.357l.151-.112c.216-.171.42-.353.613-.546.023-.021.041-.045.063-.066.17-.175.33-.359.481-.553.041-.052.08-.104.119-.158.141-.188.271-.385.393-.588.017-.025.035-.049.052-.076a7.9 7.9 0 0 0 .563.472l.123.085c.254.184.521.353.797.499.021.011.037.022.056.032.289.15.592.274.899.385l.172.06c.304.099.617.179.938.234.062.01.123.017.185.026.327.049.661.08 1.004.082.008 0 .018.002.026.002.051 0 .099-.007.146-.008.174-.004.348-.011.518-.025.092-.01.183-.024.272-.037.128-.018.257-.033.382-.059.096-.019.19-.041.287-.063.114-.027.231-.056.348-.089.096-.028.188-.06.281-.09.112-.037.223-.078.334-.121l.266-.111c.111-.05.22-.104.326-.157.082-.041.166-.083.246-.128a7.51 7.51 0 0 0 .332-.201c.067-.044.141-.085.207-.131a6.66 6.66 0 0 0 .461-.345c.047-.038.092-.079.139-.118.123-.107.246-.217.363-.332.059-.057.113-.12.17-.181.088-.093.176-.186.258-.282.06-.069.115-.143.172-.214l.216-.287c.053-.077.104-.156.155-.235.064-.101.127-.199.187-.303.047-.082.094-.165.137-.249.057-.106.107-.216.158-.327a5.25 5.25 0 0 0 .113-.253 7.86 7.86 0 0 0 .137-.372c.024-.078.057-.154.08-.234.063-.2.115-.404.158-.612.141.097.295.172.44.259.123.072.242.151.369.217.194.1.401.178.608.26.127.05.248.108.38.152.229.075.473.125.715.178.114.023.227.063.344.08a6.93 6.93 0 0 0 1.115.092c.377 0 .744-.035 1.104-.094.031-.003.062-.006.091-.011.344-.06.676-.147.998-.254.043-.015.086-.024.127-.041a6.72 6.72 0 0 0 .903-.394l.133-.07c.285-.156.558-.332.816-.524.018-.014.041-.024.059-.039v22.97h-.002z"/></svg>