<svg xmlns="http://www.w3.org/2000/svg" height="300" width="300" fill="#000000" viewBox="0 0 84.863 90" xmlns:v="https://vecta.io/nano"><path d="M66.143 36.478h0a7.11 7.11 0 0 0-.983-.071 6.95 6.95 0 0 0-3.041.711c0-.017.004-.035.004-.052 0-3.437-2.527-6.425-6.021-6.919-.326-.045-.651-.068-.979-.068-1.117.001-2.178.279-3.129.758l2.982-22.882a6.94 6.94 0 0 0 .065-.967c0-3.438-2.527-6.424-6.021-6.919A7.12 7.12 0 0 0 48.043 0a6.99 6.99 0 0 0-6.92 6.028l-5 33.249L27.42 7.389c-.837-3.122-3.661-5.184-6.755-5.184-.598 0-1.208.077-1.815.24a7 7 0 0 0-5.18 6.754c0 .599.078 1.209.241 1.816l5.846 24.242a10.05 10.05 0 0 0-1.866.526l-.782.318a1.45 1.45 0 0 0-.843 1.203l-.028.227c-.17 1.212-1.238 7.071-6.975 14.416v.002c-.106.136-.183.291-.234.452-.003.012-.01.022-.015.035-.045.157-.061.321-.051.489 0 .013-.005.022-.004.034.008.063.745 9.061 3.721 18.184 1.494 4.565 3.537 9.172 6.437 12.742C21.99 87.439 25.876 90 30.746 90h.022l.178-.002L55.852 90c8.869-.002 16.058-7.193 16.058-16.061l.186-29.566c.045-.332.068-.659.066-.98a7 7 0 0 0-6.019-6.915zm-11.026-3.5h.006a3.92 3.92 0 0 1 .576.042c2.045.283 3.525 2.045 3.525 4.048 0 .195-.015.387-.039.579l-.416 2.96L57.125 52.3l-.199 1.427-.338 2.402c-.004.03-.016.057-.02.085-.324 1.998-2.058 3.441-4.029 3.438-.193 0-.387-.01-.576-.036-1.793-.251-3.146-1.632-3.457-3.319-.002-.013-.006-.025-.01-.039a4.03 4.03 0 0 1-.061-.706 4.02 4.02 0 0 1 .039-.561l.893-6.349 1.127-8.021.58-4.117A4.08 4.08 0 0 1 51.4 35.4c.016-.038.026-.079.045-.115.67-1.384 2.102-2.307 3.672-2.307zM24.291 58.277c-.015-.016-.034-.035-.054-.061a1.45 1.45 0 0 1-.188-.347c-.011-.03-.022-.056-.035-.089-.103-.309-.19-.762-.2-1.457 0-.081.006-.176.008-.262.003-.105.005-.209.013-.323.006-.095.02-.199.029-.3.013-.135.027-.269.046-.412.015-.108.035-.229.054-.344.025-.153.053-.311.085-.477l.082-.391.051-.215.88 4.902-.771-.224zM69.01 73.939c-.01 7.267-5.893 13.148-13.158 13.163H30.966l-.198.002c-3.826-.013-6.83-1.912-9.403-5.047-3.836-4.688-6.293-12.069-7.695-18.24-.707-3.088-1.164-5.871-1.442-7.881a77.14 77.14 0 0 1-.326-2.662l.268-.363.558-.758.37-.525.514-.747.326-.5.473-.737.284-.471.434-.729.246-.437.397-.721.208-.4.362-.709c.063-.123.117-.243.176-.364l.328-.694.145-.326.295-.68.116-.286.265-.662c.032-.083.06-.163.09-.245l.235-.643.068-.198.207-.622c.019-.058.033-.11.051-.167l.178-.587c.013-.044.022-.083.035-.126l.15-.553.03-.125.117-.48c.016-.067.027-.124.041-.187l.073-.336.086-.449a6.72 6.72 0 0 1 1.374-.363c.011-.001.023-.002.034-.004a4.32 4.32 0 0 1 .579-.048 2.77 2.77 0 0 1 .854.124 2.28 2.28 0 0 1 .942.594c.114.116.224.243.331.391.292.389.516.904.695 1.461.442 1.382.577 3.055.556 3.938l-.004.368v.004l-.214.458-.458.979c-.3.664-.563 1.286-.809 1.889-1.477 3.636-1.988 6.203-1.993 8.092a7.49 7.49 0 0 0 .047.935c.222 2.186 1.365 3.278 1.933 3.595a.98.98 0 0 0 .225.094l.047.016.083.03 2.764.817.481.143a1.39 1.39 0 0 0 .393.059c.007 0 .015.002.021.002.026 0 .05-.01.076-.012.051-.003.102-.007.151-.015.444.01 2.527.1 4.832.819 2.619.819 5.386 2.379 6.744 5.336a1.45 1.45 0 0 0 1.318.846 1.42 1.42 0 0 0 .604-.135c.729-.336 1.044-1.195.709-1.922-1.858-4.012-5.494-5.953-8.513-6.891a22 22 0 0 0-4.706-.9l-.884-4.926-.385-2.146-.9-3.603.402-.927.735-1.563.003-.008c.011-.021.022-.044.033-.067.084-.175.13-.349.144-.541.001-.021.012-.196.017-.492l.003-.333h0a32.42 32.42 0 0 0-.035-1.013l-.034-.537c-.016-.201-.034-.41-.059-.626-.169-1.513-.586-3.343-1.655-4.899-.193-.274-.424-.533-.673-.78-.555-.552-1.239-1.016-2.064-1.282L16.718 10.3a4.24 4.24 0 0 1-.151-1.1c.002-1.806 1.209-3.468 3.039-3.955a3.95 3.95 0 0 1 1.059-.141 4.1 4.1 0 0 1 3.958 3.04l9.513 34.858.651 2.387c.041.15.109.283.19.407.314.479.889.737 1.473.629.021.004.04.013.061.017.792.117 1.529-.428 1.649-1.218l.129-.862.51-3.395 5.189-34.524A4.1 4.1 0 0 1 48.042 2.9a4.34 4.34 0 0 1 .574.04 4.1 4.1 0 0 1 3.526 4.051c-.002.194-.014.388-.041.578l-6.498 47.017a6.71 6.71 0 0 0-.065.968 6.78 6.78 0 0 0 .102 1.202c.5 2.915 2.835 5.296 5.919 5.731.329.045.659.067.979.067 2.965 0 5.59-1.887 6.574-4.646a6.95 6.95 0 0 0 3.76 1.796c.317.048.633.067.938.067h.043c2.019 0 3.863-.885 5.154-2.31v16.478h.003zm.213-29.967l-.244 1.736-.139.989-.678 4.818-.258 1.836c-.033.254-.096.502-.181.752-.559 1.642-2.129 2.776-3.868 2.772a3.96 3.96 0 0 1-.578-.039c-1.74-.243-3.058-1.555-3.416-3.172-.01-.047-.027-.09-.035-.136-.004-.016-.01-.028-.012-.043a3.88 3.88 0 0 1-.063-.719c0-.179.012-.362.039-.556l.846-6.01.474-3.372a3.83 3.83 0 0 1 .188-.768 3.85 3.85 0 0 1 .186-.448c.029-.058.064-.108.097-.163.701-1.294 2.063-2.146 3.567-2.146h.013c.188 0 .381.012.576.04h.002a4.1 4.1 0 0 1 3.524 4.048c-.001.196-.015.389-.04.581z"/></svg>